<?xml version="1.0" encoding="UTF-8"?>
<svg id="Capa_1" data-name="Capa 1" xmlns="http://www.w3.org/2000/svg" viewBox="0 0 23.51 21.42">
  <defs>
    <style>
      .cls-1 {
        fill: #fff;
      }
    </style>
  </defs>
  <path class="cls-1" d="m10.7,19.25c4.4-.02,7.99-3.26,8.48-7.65.08-.76.55-1.22,1.17-1.16.69.07,1.05.61.95,1.42-.63,4.96-4.22,8.65-9.18,9.43C6.53,22.18.92,18.02.12,12.42-.74,6.36,3.15,1.03,9.19.12c3.04-.46,5.79.36,8.21,2.27.6.48.71,1.1.3,1.61-.41.5-1.04.53-1.64.06C11.29.37,4.53,2.31,2.6,7.93c-1.91,5.55,2.23,11.34,8.1,11.31Z"/>
  <path class="cls-1" d="m10.76,15.03c-.93-.02-1.77-.38-2.4-1.15-.94-1.15-1.84-2.33-2.75-3.51-.43-.55-.36-1.16.13-1.55.49-.39,1.13-.28,1.58.28.84,1.06,1.67,2.13,2.5,3.19.61.78,1.22.81,1.92.11,3.21-3.21,6.43-6.43,9.64-9.64.11-.11.21-.22.32-.32.46-.39,1.09-.38,1.49.03.4.41.4,1.03,0,1.5-.07.08-.14.14-.21.21-3.26,3.26-6.52,6.52-9.78,9.78-.67.67-1.45,1.06-2.46,1.07Z"/>
</svg>