<?xml version="1.0" encoding="UTF-8"?>
<svg id="Capa_1" data-name="Capa 1" xmlns="http://www.w3.org/2000/svg" viewBox="0 0 25.79 24.78">
  <defs>
    <style>
      .cls-1 {
        fill: #f2f7f2;
      }
    </style>
  </defs>
  <path class="cls-1" d="m5.74,17.22c-.11-.68-.21-1.28-.32-1.94-.68,0-1.37.03-2.05-.01-.21-.01-.5-.15-.61-.32-.2-.31.09-.66.54-.67.69-.02,1.37,0,2.09,0,.09-.64.17-1.25.26-1.92-.21,0-.38-.02-.56-.02-1.38,0-2.75,0-4.13,0-.13,0-.27,0-.4,0-.33,0-.56-.15-.56-.5,0-.35.25-.49.57-.5.42,0,.84,0,1.26,0,1.23,0,2.45-.02,3.68,0,.37,0,.52-.12.64-.45.17-.48.42-.94.67-1.48-.82,0-1.59,0-2.37,0-.17,0-.37.06-.5-.02-.2-.12-.36-.32-.53-.49.17-.17.34-.47.53-.48.68-.06,1.38-.08,2.06-.01,1.02.11,1.76-.19,2.47-.99,1.17-1.34,2.74-2.14,4.46-2.6.34-.09.45-.22.45-.57,0-.49-.03-.85-.57-1.11-.63-.31-.87-1.12-.69-1.79.19-.72.8-1.27,1.56-1.29,1.28-.03,2.55-.03,3.83,0,.8.02,1.42.6,1.59,1.38.16.73-.19,1.52-.91,1.84-.63.28-.27.77-.35,1.17-.07.4.31.33.52.39,6.38,1.82,9.37,9.08,6.1,14.84-.05.09-.1.17-.15.26-.19.32-.41.64-.83.38-.41-.26-.22-.59-.03-.92,3.18-5.37.34-12.2-5.67-13.67-4.98-1.21-10.06,1.95-11.12,6.93-1.08,5.11,2.17,10.03,7.28,10.97,2.27.42,4.4.03,6.39-1.14.12-.07.24-.19.35-.19.21.02.51.05.59.19.09.14.02.44-.08.62-.08.14-.29.22-.45.31-5.26,3.07-11.99.88-14.44-4.7-.17-.38-.36-.48-.74-.47-.94.03-1.88,0-2.82,0-.37,0-.71-.07-.72-.51,0-.45.34-.51.71-.5.99,0,1.98,0,3.01,0ZM15.58,2.43c.59,0,1.17,0,1.76,0,.46,0,.77-.28.78-.67.01-.41-.3-.72-.79-.73-1.15-.01-2.31-.01-3.46,0-.49,0-.79.31-.78.73.02.4.31.66.78.67.57,0,1.14,0,1.71,0Zm-1.15,1.03v.98h2.36v-.98h-2.36Z"/>
  <path class="cls-1" d="m7.79,14.61c0-4.3,3.52-7.83,7.81-7.83,4.3,0,7.82,3.52,7.83,7.82,0,4.3-3.5,7.81-7.81,7.82-4.31,0-7.82-3.5-7.83-7.81Zm7.83,6.79c3.75,0,6.78-3.03,6.8-6.78.02-3.75-3.06-6.84-6.81-6.83-3.75,0-6.83,3.1-6.8,6.84.03,3.75,3.06,6.77,6.81,6.77Z"/>
  <path class="cls-1" d="m22.32,22.02c-.12-.2-.33-.39-.35-.6-.03-.31.22-.52.51-.44.19.05.44.31.44.47,0,.19-.24.39-.38.58-.07,0-.15,0-.22,0Z"/>
  <path class="cls-1" d="m15.59,16.16c-.98,0-1.7-.86-1.5-1.83.08-.37,0-.59-.27-.81-.25-.22-.53-.44-.69-.72-.11-.18-.12-.53,0-.7.17-.26.47-.2.7,0,.13.11.24.23.36.35.39.39.72.65,1.41.65.75,0,1.11-.3,1.53-.73.52-.53,1.04-1.04,1.56-1.57.26-.26.55-.38.83-.08.26.28.14.55-.1.79-.68.67-1.35,1.36-2.03,2.02-.23.22-.34.41-.26.77.22.99-.53,1.85-1.53,1.84Zm-.1-.93c.08,0,.16,0,.25,0,.14-.21.36-.4.39-.63.05-.33-.2-.54-.53-.53-.33,0-.57.22-.52.54.04.22.26.42.4.62Z"/>
  <path class="cls-1" d="m16.12,9.44c.02.39-.06.73-.5.73-.48,0-.51-.38-.51-.76,0-.38.1-.7.54-.68.44.02.5.37.48.72Z"/>
  <path class="cls-1" d="m16.11,19.76c0,.36-.05.71-.5.71-.49,0-.51-.37-.51-.75,0-.37.07-.7.52-.68.45.02.5.36.49.72Z"/>
  <path class="cls-1" d="m10.47,14.1c.36-.01.71.04.7.5,0,.45-.34.51-.71.51-.5,0-.75-.18-.73-.54.02-.33.24-.47.74-.47Z"/>
  <path class="cls-1" d="m20.78,15.12c-.38,0-.74-.05-.73-.53.01-.45.36-.48.72-.49.37,0,.7.05.71.5,0,.45-.33.52-.7.51Z"/>
</svg>