<?xml version="1.0" encoding="UTF-8"?>
<svg id="Capa_1" data-name="Capa 1" xmlns="http://www.w3.org/2000/svg" viewBox="0 0 20.52 24.65">
  <defs>
    <style>
      .cls-1 {
        fill: #fff;
      }
    </style>
  </defs>
  <path class="cls-1" d="m8.32,12.7c-.18-.2-.25-.33-.37-.4-1.07-.67-1.82-1.56-1.99-2.86-.02-.15-.21-.27-.32-.42-.24-.33-.65-.65-.67-.98-.05-1.28-.12-2.58.09-3.83C5.53,1.6,7.98-.17,10.66.01c2.61.18,4.75,2.31,4.91,4.94.06.94.03,1.89.02,2.84,0,.56-.26.97-.74,1.26-.14.09-.28.27-.31.42-.17,1.26-.89,2.13-1.93,2.79-.13.08-.23.21-.44.41.47.05.8.08,1.13.11,1.24.13,2.35.6,3.35,1.35.18.13.42.21.65.23.97.07,1.48.71,1.28,1.66-.04.18-.04.38.02.55.6,1.77,1.23,3.54,1.81,5.32.46,1.41-.53,2.75-2.01,2.75-5.42,0-10.84,0-16.27,0-1.51,0-2.49-1.34-2.02-2.78.58-1.78,1.22-3.54,1.81-5.32.06-.17.04-.38,0-.56-.19-.89.32-1.55,1.22-1.64.28-.03.58-.14.81-.3,1.13-.81,2.38-1.25,3.76-1.32.16,0,.31-.01.61-.03Zm1.94,2.5c-2.29,0-4.59,0-6.88,0-.61,0-.75.18-.6.76.51,1.94,1.02,3.87,1.52,5.81.08.3.2.4.52.4,3.62-.01,7.25-.01,10.87,0,.32,0,.45-.1.52-.4.49-1.92,1-3.84,1.51-5.76.17-.65.04-.81-.63-.81-2.28,0-4.55,0-6.83,0Zm.03-2.89s.09,0,.15-.01c1.65-.21,3.07-1.61,3.31-3.25.05-.32.05-.62.49-.71.2-.04.45-.32.5-.53.07-.32-.17-.54-.5-.58-.31-.04-.42-.21-.47-.5-.1-.58-.37-.85-.94-.93-.85-.12-1.64-.42-2.37-.87-.11-.07-.34-.07-.46,0-.73.45-1.51.76-2.37.87-.49.07-.83.36-.9.86-.05.35-.19.52-.55.6-.18.04-.39.3-.42.49-.03.16.17.51.29.52.68.08.66.57.73,1.04.22,1.44,2.01,2.98,3.49,2.99Zm-4.5-5.73c.12-.17.17-.23.19-.3.27-.8.85-1.15,1.66-1.34.72-.17,1.41-.5,2.08-.82.39-.19.71-.25,1.07,0,.68.48,1.45.75,2.27.87.69.1,1.16.5,1.43,1.14.05.12.11.23.16.34.28-1.99-.14-3.71-1.86-4.86-1.6-1.07-3.3-1.1-4.93-.08-1.81,1.13-2.29,2.89-2.07,5.05Zm11.02,16.44H3.74v.74h13.06v-.74Zm-14.37-5.16h-.12c-.49,1.48-1.01,2.97-1.46,4.48-.17.57.22,1.21.78,1.37.37.1.78.08,1.2.12.06-.69-.15-1.42.73-1.67-.39-1.47-.76-2.88-1.13-4.3Zm15.25,5.9c1.53.29,2.4-.62,1.81-2.09-.45-1.11-.77-2.27-1.15-3.4-.05-.14-.11-.28-.22-.54-.41,1.56-.78,2.99-1.17,4.45.88.25.66.97.72,1.59Zm-8.63-10.91c-.07.62.11,1.05.58,1.33.43.26.89.25,1.31-.04.44-.29.59-.72.53-1.29-.82.33-1.59.36-2.42,0Zm-3.96,1.46h3.45c-.12-.28-.22-.51-.33-.75-1.07-.05-2.07.17-3.12.75Zm6.93,0h3.4c-.84-.47-1.61-.69-2.43-.74-.74-.05-.74-.04-.98.74Z"/>
  <path class="cls-1" d="m10.15,17.66c.76.03,1.3.2,1.73.64.57.58.58,1.39.03,1.99-.82.89-2.47.88-3.29,0-.54-.58-.53-1.37,0-1.95.4-.43,1.04-.68,1.53-.67Zm.13,2.46c.64,0,1.2-.37,1.22-.79.02-.44-.55-.84-1.22-.84-.66,0-1.24.38-1.24.82,0,.44.58.82,1.24.81Z"/>
</svg>