
<svg viewBox="0 0 41.39 37.57" fill="currentColor">
  <g>
    <path class="cls-1" d="m38.1,27.84H15.28c-1.12-1.88-3.17-3.15-5.52-3.15s-4.4,1.26-5.52,3.15h-.94c-1.82,0-3.29,1.47-3.29,3.29h0c0,1.82,1.47,3.29,3.29,3.29h.94c1.12,1.88,3.17,3.15,5.52,3.15s4.4-1.26,5.52-3.15h22.81c1.82,0,3.29-1.47,3.29-3.29h0c0-1.82-1.47-3.29-3.29-3.29Zm-28.34,7.88c-2.54,0-4.59-2.06-4.59-4.59s2.06-4.59,4.59-4.59,4.59,2.06,4.59,4.59-2.06,4.59-4.59,4.59Z"/>
    <path class="cls-1" d="m38.1,15.49h-2.74c-1.12-1.88-3.17-3.15-5.52-3.15s-4.4,1.26-5.52,3.15H3.29c-1.82,0-3.29,1.47-3.29,3.29s1.47,3.29,3.29,3.29h21.01c1.12,1.88,3.17,3.15,5.52,3.15s4.4-1.26,5.52-3.15h2.74c1.82,0,3.29-1.47,3.29-3.29s-1.47-3.29-3.29-3.29Zm-8.26,7.81c-2.5,0-4.52-2.02-4.52-4.52s2.02-4.52,4.52-4.52,4.52,2.02,4.52,4.52-2.02,4.52-4.52,4.52Z"/>
    <path class="cls-1" d="m38.1,3.15H15.28c-1.12-1.88-3.17-3.15-5.52-3.15s-4.4,1.26-5.52,3.15h-.94c-1.82,0-3.29,1.47-3.29,3.29s1.47,3.29,3.29,3.29h.94c1.12,1.88,3.17,3.15,5.52,3.15s4.4-1.26,5.52-3.15h22.81c1.82,0,3.29-1.47,3.29-3.29s-1.47-3.29-3.29-3.29ZM9.76,11.28c-2.67,0-4.84-2.17-4.84-4.84S7.09,1.6,9.76,1.6s4.84,2.17,4.84,4.84-2.17,4.84-4.84,4.84Z"/>
  </g>
  <circle className="filter-icon-active" cx="9.76" cy="6.44" r="4.92"/>
  <circle className="filter-icon-active" cx="29.83" cy="18.78" r="4.92"/>
  <circle className="filter-icon-active" cx="9.76" cy="31.13" r="4.92"/>
</svg>