<?xml version="1.0" encoding="UTF-8"?>
<svg id="Capa_1" data-name="Capa 1" xmlns="http://www.w3.org/2000/svg" viewBox="0 0 24.49 17.44" fill="white">
  <path class="cls-1" d="m.83,4.07c2.08.61,4.05,1.19,6.01,1.77.14.04.31.04.4.13.14.13.22.32.32.49-.17.07-.35.2-.51.18-.29-.03-.58-.15-.95-.26,0,.47-.03.9.02,1.31.02.14.21.3.36.39,1.8,1.05,3.76,1.46,5.82,1.45,1.97,0,3.85-.42,5.6-1.37.36-.2.56-.42.5-.85-.04-.28,0-.57,0-.92-.34.09-.63.17-.91.25-1.53.45-3.05.92-4.58,1.33-.41.11-.88.1-1.3,0-.93-.22-1.84-.52-2.75-.79-.24-.07-.49-.17-.41-.48.09-.33.35-.29.62-.21.93.28,1.86.56,2.8.81.22.06.49.09.7.03,2.54-.73,5.07-1.49,7.6-2.24.04-.01.08-.04.19-.11-1.6-.13-3.12-.26-4.64-.38-.98-.08-1.97-.16-2.95-.24-.27-.02-.6-.03-.56-.42.04-.35.34-.31.6-.29,2.13.17,4.26.35,6.38.52.95.08,1.9.2,2.86.22.51.01,1.02-.15,1.54-.24,0-.04,0-.09,0-.13-.17-.06-.34-.12-.52-.17-.81-.24-1.62-.46-2.42-.73-.15-.05-.23-.31-.35-.47.18-.07.39-.24.55-.2,1.03.27,2.05.59,3.07.89.34.1.56.31.57.68.01.39-.22.61-.58.72-.02,0-.03.01-.05.02q-1.03.34-1.03,1.43c0,.24,0,.48,0,.72,0,.49-.03.88.54,1.21.78.44.74,1.42.03,2.31.5.85.53,1.8.53,2.76,0,.63-.34.98-.97,1-.33.01-.67.01-1,0-.57-.02-.97-.35-.96-.91,0-1.05,0-1.94.49-2.78-.17-.37-.38-.7-.47-1.05-.15-.62.19-1.2.79-1.54.12-.07.27-.23.28-.36.03-.73.01-1.46.01-2.26-1.01.3-1.98.58-2.97.87,0,1.01-.02,2,0,2.99.02.71-.27,1.17-.9,1.48-1.2.59-2.46.96-3.77,1.15-.2.03-.41.06-.62.17.95.29,1.9.63,2.86.87,1.19.29,1.43.98,1.37,2-.05.83-.35,1.58-.95,2.19-.41.41-.87.53-1.44.36-4.46-1.37-8.92-2.73-13.38-4.07-.72-.22-1.05-.69-1.11-1.38-.09-1.03.21-1.96.94-2.71.41-.42.89-.58,1.48-.37.55.2,1.12.35,1.73.53v-3.2c-1.54-.45-3.09-.91-4.65-1.37-.53-.16-.82-.54-.64-.93.1-.21.35-.43.57-.5C4.35,2.24,8.07,1.14,11.8.06c.29-.08.65-.07.94,0,2.08.59,4.15,1.22,6.23,1.83.25.07.54.15.45.49-.1.38-.41.27-.67.19-1.98-.58-3.97-1.18-5.95-1.75-.29-.08-.64-.12-.92-.04C8.29,1.83,4.72,2.89,1.15,3.94c-.07.02-.14.06-.32.13Zm3.42,5.71c0,.24.04.43-.01.58-.06.17-.22.3-.33.44-.12-.14-.28-.26-.36-.42-.08-.17-.04-.38-.1-.56-.13-.41-.38-.48-.72-.23-.61.45-1.02,1.82-.77,2.53.15.4.39.49.72.21.18-.15.29-.39.47-.53.12-.09.33-.08.49-.12.03.17.12.36.07.5-.08.21-.26.39-.41.61.15.05.28.1.41.14,1.6.49,3.19.98,4.79,1.47.95.29,1.33.15,1.67-.79.17-.45.23-.96.22-1.44,0-.22-.24-.57-.44-.64-1.89-.61-3.79-1.18-5.72-1.76Zm6,5.14c.11.04.21.08.31.12,1.63.5,3.26,1,4.88,1.5.93.28,1.3.14,1.65-.77.17-.46.2-.99.24-1.49.02-.35-.18-.59-.55-.68-.39-.1-.76-.23-1.14-.34-1.49-.45-2.97-.91-4.47-1.36,0,1.46-.07,1.71-.91,3.03Zm-4.11-6.14q-.07.8.65,1.02c.67.21,1.33.42,2,.62.88.27,1.75.68,2.65.75,2.2.19,4.35-.16,6.36-1.13.63-.3.72-.52.52-1.24-4.05,1.97-8.1,1.97-12.18-.02Zm16.33,4.71c.7,0,.77-.01.75-.31-.05-.66-.12-1.32-.26-1.97-.04-.19-.32-.42-.51-.44-.15-.01-.42.25-.47.44-.13.5-.21,1.02-.24,1.54-.05.75-.03.75.73.75Zm0-3.5c.42,0,.77-.33.77-.75,0-.41-.35-.75-.77-.75-.4,0-.73.32-.74.72-.01.42.31.76.74.77Z"/>
</svg>