<svg width="319" height="326" viewBox="0 0 319 326" fill="none" xmlns="http://www.w3.org/2000/svg">
<g clip-path="url(#clip0_17_223)">
<path d="M34.8725 173.13L12.5215 198.795L12.755 199.125L47.2841 190.71L53.1827 199.065L7.08232 209.216L0.225206 199.503L28.9616 164.758L34.8725 173.13Z" fill="#0F1A20"/>
<path d="M49.4705 251.098C45.3359 253.454 41.3259 254.702 37.4406 254.843C33.5631 254.996 30.0138 254.211 26.7928 252.489C23.5919 250.771 20.9406 248.3 18.8389 245.075C16.7218 241.826 15.587 238.474 15.4345 235.02C15.2821 231.566 16.1675 228.262 18.0907 225.111C20.0139 221.959 23.0367 219.208 27.1589 216.86C31.2935 214.504 35.2996 213.25 39.1771 213.097C43.0547 212.944 46.5939 213.727 49.7948 215.444C53.0081 217.155 55.6733 219.634 57.7905 222.883C59.8921 226.108 61.0192 229.448 61.1716 232.902C61.3442 236.362 60.4688 239.667 58.5456 242.819C56.6301 245.983 53.605 248.743 49.4705 251.098ZM44.3637 243.262C47.0419 241.736 49.0485 240.062 50.3834 238.241C51.726 236.432 52.4188 234.56 52.4618 232.626C52.5048 230.692 51.9175 228.791 50.7 226.923C49.4824 225.054 47.9448 223.695 46.0871 222.844C44.2294 221.993 42.129 221.704 39.786 221.979C37.4507 222.265 34.9439 223.171 32.2657 224.696C29.5875 226.222 27.577 227.89 26.2344 229.699C24.8995 231.521 24.2106 233.398 24.1676 235.332C24.1246 237.266 24.7119 239.167 25.9294 241.035C27.147 242.904 28.6846 244.263 30.5423 245.114C32.4 245.965 34.4965 246.248 36.8318 245.962C39.1748 245.687 41.6855 244.787 44.3637 243.262Z" fill="#0F1A20"/>
<path d="M88.4188 278.326L80.7139 273.06C81.3478 272.038 81.7486 271.019 81.9161 270.003C82.0928 268.977 82.0552 267.975 81.8033 266.998C81.5515 266.021 81.0938 265.092 80.4304 264.21C79.7787 263.337 78.9368 262.548 77.9048 261.842C76.0402 260.568 74.056 259.888 71.9522 259.803C69.8575 259.707 67.7456 260.216 65.6163 261.329C63.4962 262.432 61.4655 264.144 59.5244 266.464C57.5286 268.851 56.2329 271.116 55.6373 273.26C55.0534 275.413 55.1071 277.376 55.7983 279.15C56.4896 280.924 57.744 282.432 59.5618 283.674C60.582 284.371 61.6309 284.891 62.7083 285.234C63.7975 285.584 64.8826 285.752 65.9638 285.738C67.0541 285.712 68.1137 285.503 69.1425 285.11C70.1831 284.726 71.1651 284.147 72.0882 283.373L79.7657 288.672C78.2814 290.072 76.5436 291.213 74.5523 292.095C72.5819 292.975 70.4589 293.519 68.1833 293.727C65.9285 293.933 63.6072 293.734 61.2192 293.129C58.8521 292.522 56.5133 291.428 54.2031 289.849C50.9898 287.653 48.6816 285.014 47.2786 281.932C45.8872 278.858 45.5294 275.539 46.2051 271.977C46.8925 268.422 48.7582 264.826 51.802 261.186C54.8549 257.536 58.191 254.936 61.8103 253.385C65.4295 251.835 69.0662 251.255 72.7202 251.646C76.3833 252.026 79.7981 253.298 82.9645 255.462C85.0519 256.889 86.7591 258.484 88.086 260.247C89.4246 262.018 90.3484 263.899 90.8573 265.891C91.3754 267.872 91.4395 269.911 91.0497 272.008C90.6716 274.112 89.7947 276.219 88.4188 278.326Z" fill="#0F1A20"/>
<path d="M90.6476 312.926L80.9951 310.789L105.136 271.441L116.744 274.011L121.998 319.868L112.345 317.731L108.951 282.499L108.618 282.425L90.6476 312.926ZM93.7523 296.046L116.552 301.095L114.996 308.126L92.1955 303.078L93.7523 296.046Z" fill="#0F1A20"/>
<path d="M170.571 296.985L161.239 296.894C161.08 295.685 160.742 294.609 160.226 293.667C159.71 292.71 159.043 291.894 158.226 291.218C157.408 290.543 156.462 290.022 155.386 289.656C154.324 289.291 153.168 289.102 151.918 289.09C149.66 289.068 147.687 289.609 146 290.715C144.313 291.807 142.998 293.413 142.054 295.535C141.11 297.642 140.623 300.209 140.593 303.234C140.563 306.345 140.999 308.963 141.902 311.088C142.818 313.214 144.11 314.824 145.775 315.92C147.441 317.016 149.374 317.575 151.576 317.596C152.811 317.608 153.956 317.456 155.011 317.14C156.079 316.823 157.028 316.357 157.858 315.74C158.688 315.109 159.378 314.341 159.926 313.438C160.489 312.534 160.883 311.501 161.107 310.338L170.439 310.472C170.178 312.472 169.555 314.398 168.571 316.249C167.602 318.087 166.3 319.729 164.666 321.176C163.047 322.609 161.118 323.741 158.88 324.571C156.656 325.388 154.145 325.782 151.347 325.755C147.455 325.717 143.984 324.802 140.933 323.011C137.896 321.22 135.506 318.647 133.764 315.291C132.035 311.936 131.194 307.887 131.24 303.143C131.287 298.384 132.221 294.345 134.043 291.025C135.866 287.704 138.319 285.185 141.404 283.468C144.49 281.737 147.95 280.89 151.785 280.928C154.313 280.952 156.653 281.33 158.805 282.061C160.972 282.793 162.886 283.849 164.549 285.229C166.212 286.594 167.559 288.262 168.591 290.233C169.637 292.203 170.297 294.454 170.571 296.985Z" fill="#0F1A20"/>
<path d="M187.923 276.201L194.899 319.276L185.792 320.751L178.816 277.676L187.923 276.201Z" fill="#0F1A20"/>
<path d="M238.24 283.257C239.854 287.734 240.379 291.848 239.814 295.6C239.262 299.347 237.829 302.575 235.513 305.282C233.206 307.971 230.242 309.968 226.621 311.274C222.973 312.589 219.4 312.941 215.903 312.329C212.406 311.718 209.25 310.146 206.434 307.613C203.618 305.079 201.405 301.581 199.796 297.118C198.182 292.642 197.651 288.53 198.202 284.783C198.754 281.035 200.183 277.817 202.49 275.128C204.793 272.426 207.768 270.417 211.416 269.102C215.037 267.796 218.596 267.449 222.093 268.06C225.599 268.654 228.759 270.217 231.575 272.75C234.405 275.278 236.626 278.781 238.24 283.257ZM229.441 286.43C228.395 283.53 227.079 281.241 225.493 279.563C223.92 277.881 222.166 276.807 220.232 276.342C218.298 275.876 216.281 276.022 214.183 276.778C212.086 277.535 210.44 278.709 209.248 280.302C208.055 281.894 207.384 283.843 207.233 286.147C207.096 288.446 207.55 291.046 208.595 293.946C209.641 296.845 210.95 299.136 212.523 300.819C214.11 302.497 215.87 303.569 217.804 304.034C219.739 304.499 221.755 304.353 223.853 303.597C225.951 302.841 227.596 301.666 228.788 300.074C229.981 298.481 230.646 296.535 230.783 294.236C230.934 291.931 230.486 289.329 229.441 286.43Z" fill="#0F1A20"/>
<path d="M255.295 235.339L286.932 265.393L280.809 270.493L246.309 263.726L246.063 263.93L265.975 282.846L258.886 288.75L227.249 258.696L233.471 253.515L267.841 260.362L268.135 260.117L248.239 241.216L255.295 235.339Z" fill="#0F1A20"/>
<path d="M296.63 243.289L291.995 252.022L259.335 220.653L264.909 210.152L311.684 214.927L307.049 223.66L271.279 219.379L271.119 219.681L296.63 243.289ZM280.727 236.735L291.675 216.108L298.231 219.089L287.283 239.716L280.727 236.735Z" fill="#0F1A20"/>
<path d="M310.258 202.405L267.806 192.308L270.546 183.499L305.598 191.835L311.153 173.971L318.553 175.731L310.258 202.405Z" fill="#0F1A20"/>
<path d="M107.45 27.5204L117.18 41.3436C117.098 42.3807 116.759 43.6816 116.165 45.2465C115.56 46.7953 114.553 48.4708 113.147 50.2729C111.74 52.0751 109.767 53.8699 107.228 55.6574C104.976 57.2425 102.665 58.3198 100.295 58.8892C97.9141 59.4426 95.5469 59.4728 93.1935 58.9797C90.8561 58.4754 88.5973 57.438 86.4171 55.8676C84.2257 54.2812 82.1857 52.1465 80.297 49.4633L78.7624 47.2832C76.8738 44.6 75.5365 41.9706 74.7505 39.3949C73.9805 36.808 73.7365 34.3405 74.0184 31.9925C74.3003 29.6445 75.0715 27.4656 76.3319 25.4558C77.5923 23.446 79.3165 21.6711 81.5046 20.1309C84.5392 17.9949 87.3792 16.7362 90.0247 16.3549C92.659 15.9577 95.0999 16.2697 97.3475 17.2911C99.5998 18.2853 101.633 19.816 103.446 21.8834L96.4746 26.7906C95.467 25.7324 94.4065 24.9383 93.2931 24.4084C92.1796 23.8784 90.9855 23.6919 89.7107 23.8489C88.4518 23.9946 87.0956 24.5789 85.6422 25.6019C84.4444 26.4451 83.5486 27.4459 82.9548 28.6043C82.3657 29.7355 82.0834 30.997 82.1078 32.389C82.1322 33.781 82.4658 35.2898 83.1084 36.9154C83.7511 38.541 84.7188 40.2722 86.0117 42.1089L87.5799 44.3369C88.8615 46.1576 90.1727 47.6471 91.5133 48.8052C92.8428 49.9474 94.1881 50.7559 95.5494 51.2308C96.9155 51.6785 98.2782 51.7821 99.6376 51.5418C100.997 51.3014 102.356 50.7035 103.713 49.7479C104.847 48.9497 105.722 48.1906 106.338 47.4706C106.969 46.7393 107.421 46.0749 107.693 45.4773C107.97 44.8526 108.146 44.3225 108.222 43.8871L103.871 37.7062L97.3071 42.3267L93.6984 37.1998L107.45 27.5204Z" fill="#0F1A20"/>
<path d="M145.59 1.79519L154.263 0.565746L158.219 28.4704C158.679 31.7191 158.371 34.5541 157.294 36.9754C156.236 39.3939 154.568 41.3366 152.291 42.8036C150.032 44.2679 147.327 45.2234 144.175 45.6702C141.023 46.117 138.14 45.9537 135.525 45.1803C132.929 44.4041 130.778 43.0027 129.07 40.9762C127.382 38.947 126.307 36.308 125.847 33.0592L121.891 5.15459L130.593 3.92103L134.549 31.8257C134.818 33.7208 135.337 35.2253 136.106 36.3393C136.876 37.4533 137.861 38.2111 139.062 38.613C140.282 39.012 141.666 39.1019 143.213 38.8826C144.799 38.6578 146.103 38.1869 147.126 37.4699C148.168 36.7501 148.894 35.7496 149.304 34.4684C149.734 33.1845 149.814 31.5949 149.546 29.6998L145.59 1.79519Z" fill="#0F1A20"/>
<path d="M191.85 4.41274L181.01 45.6686L172.537 43.4424L183.378 2.18661L191.85 4.41274Z" fill="#0F1A20"/>
<path d="M228.499 27.1197L200.771 51.9427L192.678 47.2698L227.732 18.2532L232.882 21.2269L228.499 27.1197ZM219.166 62.5628L226.774 26.1236L229.609 19.3372L234.811 22.3402L227.285 67.2503L219.166 62.5628ZM226.649 48.5476L223.206 54.51L203.695 43.2453L207.138 37.2829L226.649 48.5476Z" fill="#0F1A20"/>
<path d="M158.5 110.292C158.493 107.713 157.971 105.162 156.966 102.788C155.96 100.413 154.491 98.2635 152.643 96.4644C150.796 94.6653 148.608 93.253 146.208 92.3103C143.808 91.3676 141.244 90.9134 138.666 90.9745C136.089 91.0355 133.549 91.6105 131.196 92.6657C128.843 93.721 126.725 95.2352 124.965 97.1197C123.205 99.0043 121.839 101.221 120.947 103.64C120.055 106.06 119.654 108.633 119.769 111.209C115.973 112.185 112.449 114.012 109.463 116.552C106.478 119.092 104.11 122.277 102.538 125.868C100.966 129.459 100.231 133.36 100.39 137.277C100.55 141.193 101.598 145.022 103.456 148.473C100.189 151.127 97.6201 154.539 95.9726 158.412C94.3252 162.285 93.6491 166.502 94.003 170.696C94.357 174.89 95.7303 178.934 98.0036 182.477C100.277 186.019 103.381 188.952 107.047 191.021C106.249 197.194 107.706 203.447 111.152 208.631C114.597 213.815 119.798 217.581 125.798 219.236C131.799 220.891 138.195 220.324 143.81 217.639C149.426 214.954 153.883 210.331 156.362 204.622C156.82 203.481 157.174 202.3 157.422 201.096C157.602 200.256 159.398 200.256 159.585 201.096C159.83 202.3 160.183 203.48 160.638 204.622C163.117 210.331 167.574 214.954 173.19 217.639C178.805 220.324 185.201 220.891 191.202 219.236C197.202 217.581 202.403 213.815 205.848 208.631C209.294 203.447 210.751 197.194 209.954 191.021C213.619 188.952 216.723 186.019 218.997 182.477C221.27 178.934 222.643 174.89 222.997 170.696C223.351 166.502 222.675 162.285 221.027 158.412C219.38 154.539 216.811 151.127 213.544 148.473C215.402 145.022 216.451 141.193 216.61 137.277C216.769 133.36 216.034 129.459 214.463 125.868C212.891 122.277 210.522 119.092 207.537 116.552C204.551 114.012 201.027 112.185 197.231 111.209C197.346 108.633 196.945 106.06 196.053 103.64C195.161 101.221 193.795 99.0043 192.035 97.1197C190.275 95.2352 188.157 93.721 185.804 92.6657C183.451 91.6105 180.911 91.0355 178.334 90.9745C175.756 90.9134 173.192 91.3676 170.792 92.3103C168.392 93.253 166.204 94.6653 164.357 96.4644C162.509 98.2635 161.04 100.413 160.034 102.788C159.029 105.162 158.507 107.713 158.5 110.292Z" stroke="#0F1A20" stroke-width="9" stroke-linecap="round" stroke-linejoin="round"/>
<path d="M194.66 119.979C196.223 117.27 197.107 114.224 197.237 111.099" stroke="#0F1A20" stroke-width="9" stroke-linecap="round" stroke-linejoin="round"/>
<path d="M119.769 111.099C119.897 114.223 120.779 117.27 122.34 119.979" stroke="#0F1A20" stroke-width="9" stroke-linecap="round" stroke-linejoin="round"/>
<path d="M103.456 148.37C104.637 147.408 105.901 146.552 107.234 145.812" stroke="#0F1A20" stroke-width="9" stroke-linecap="round" stroke-linejoin="round"/>
<path d="M209.766 145.812C211.099 146.552 212.363 147.408 213.544 148.37" stroke="#0F1A20" stroke-width="9" stroke-linecap="round" stroke-linejoin="round"/>
<path d="M119.75 194.25C115.299 194.252 110.923 193.104 107.047 190.917" stroke="#0F1A20" stroke-width="9" stroke-linecap="round" stroke-linejoin="round"/>
<path d="M209.954 190.917C206.077 193.104 201.701 194.252 197.25 194.25" stroke="#0F1A20" stroke-width="9" stroke-linecap="round" stroke-linejoin="round"/>
<path d="M158.5 174.875C169.201 174.875 177.875 166.201 177.875 155.5C177.875 144.799 169.201 136.125 158.5 136.125C147.799 136.125 139.125 144.799 139.125 155.5C139.125 166.201 147.799 174.875 158.5 174.875Z" stroke="#0F1A20" stroke-width="9" stroke-linecap="round" stroke-linejoin="round"/>
<path d="M182.396 145.167L176.583 147.75" stroke="#0F1A20" stroke-width="9" stroke-linecap="round" stroke-linejoin="round"/>
<path d="M140.417 163.25L134.604 165.833" stroke="#0F1A20" stroke-width="9" stroke-linecap="round" stroke-linejoin="round"/>
<path d="M168.833 179.396L166.25 173.583" stroke="#0F1A20" stroke-width="9" stroke-linecap="round" stroke-linejoin="round"/>
<path d="M150.75 137.417L148.167 131.604" stroke="#0F1A20" stroke-width="9" stroke-linecap="round" stroke-linejoin="round"/>
<path d="M182.396 165.188L176.583 162.604" stroke="#0F1A20" stroke-width="9" stroke-linecap="round" stroke-linejoin="round"/>
<path d="M140.417 148.396L134.604 145.812" stroke="#0F1A20" stroke-width="9" stroke-linecap="round" stroke-linejoin="round"/>
<path d="M148.812 179.396L151.396 173.583" stroke="#0F1A20" stroke-width="9" stroke-linecap="round" stroke-linejoin="round"/>
<path d="M165.604 137.417L168.187 131.604" stroke="#0F1A20" stroke-width="9" stroke-linecap="round" stroke-linejoin="round"/>
</g>
<defs>
<clipPath id="clip0_17_223">
<rect width="319" height="326" fill="white"/>
</clipPath>
</defs>
</svg>
