<?xml version="1.0" encoding="UTF-8"?>
<svg id="Capa_1" data-name="Capa 1" xmlns="http://www.w3.org/2000/svg" viewBox="0 0 35.83 35.84" fill="currentColor">
  <path class="cls-1" d="m25.24,10.48c-.51.35-1.03.71-1.54,1.06-3.08,2.14-6.17,4.28-9.25,6.43-.44.31-.81.4-1.34.22-3.77-1.28-7.55-2.53-11.33-3.79C.59,14.01,0,13.29,0,12.28c0-1.02.6-1.71,1.81-2.1C12.14,6.84,22.47,3.51,32.8.17c.89-.29,1.71-.26,2.4.42.71.7.75,1.54.45,2.46-3.35,10.35-6.68,20.71-10.02,31.06-.04.11-.07.22-.11.33-.35.88-1.09,1.4-1.98,1.4-.89,0-1.67-.52-1.97-1.41-1.36-4.02-2.7-8.04-4.02-12.07-.08-.25.04-.64.2-.87,2.36-3.42,4.75-6.81,7.12-10.22.16-.23.31-.46.46-.69-.04-.04-.07-.07-.11-.11Z"/>
</svg>