<?xml version="1.0" encoding="UTF-8"?>
<svg id="Capa_1" data-name="Capa 1" xmlns="http://www.w3.org/2000/svg" xmlns:xlink="http://www.w3.org/1999/xlink" viewBox="-2 0 197.85 214.77">
  <defs>
    <style>
      .cls-1 {
        fill: #fff;
      }

      .cls-2 {
        fill: #c1cdd9;
      }

      .cls-3 {
        fill: none;
        stroke: #fff;
        stroke-miterlimit: 10;
      }

      .cls-4 {
        fill: #c3ced4;
      }

      .cls-5 {
        fill: #c6d0d9;
      }

      .cls-6 {
        fill: #cadcea;
      }

      .cls-7 {
        fill: url(#Degradado_sin_nombre_5);
      }
    </style>
    <linearGradient id="Degradado_sin_nombre_5" data-name="Degradado sin nombre 5" x1="95.78" y1="35.25" x2="97.37" y2="228.29" gradientUnits="userSpaceOnUse">
      <stop offset="0" stop-color="#fffefc"/>
      <stop offset="1" stop-color="#c3d4dc"/>
    </linearGradient>
  </defs>
  <path d="m197.85,147.96V49.89c0-27.55-22.34-49.89-49.89-49.89H49.89C22.34,0,0,22.34,0,49.89v98.07c0,27.55,22.34,49.89,49.89,49.89h94.98l5.64,7.7c.1.14.21.27.32.4,2.99,4.61,7.78,7.72,13.22,8.58,1,.16,2.02.24,3.02.24,4.57,0,9.01-1.63,12.5-4.6,3.54-3,5.88-7.17,6.6-11.76.81-5.17-.49-10.39-3.59-14.55,9.4-9.07,15.26-21.81,15.26-35.91Z"/>
  <path class="cls-1" d="m96.42,47.58c-30.53,0-55.28,24.75-55.28,55.28s24.75,55.28,55.28,55.28,55.28-24.75,55.28-55.28-24.75-55.28-55.28-55.28Zm-37.03,46.87c0-6.72,5.45-12.16,12.16-12.16s12.16,5.45,12.16,12.16-5.45,12.16-12.16,12.16-12.16-5.45-12.16-12.16Zm57.16,37.74c-2.27,4.07-6.58,6.83-11.51,6.83-4.02,0-7.63-1.83-10.05-4.72-2.43,2.89-6.03,4.72-10.05,4.72-4.93,0-9.24-2.76-11.51-6.83-1.12-2.01.15-4.48,2.31-4.78,1.31-.18,2.59.52,3.25,1.67,1.19,2.09,3.41,3.5,5.95,3.5s4.79-1.43,5.97-3.54c.09-.17.2-.32.32-.46v-9.43l-5.99-6.08c-2.48-2.52-.7-6.77,2.83-6.78l13.81-.02c3.54,0,5.33,4.26,2.85,6.78l-5.99,6.08v9.46c.12.14.23.3.32.46,1.18,2.11,3.42,3.54,5.97,3.54s4.76-1.41,5.95-3.5c.66-1.15,1.93-1.86,3.25-1.67,2.16.3,3.43,2.77,2.31,4.78Zm4.38-25.57c-6.72,0-12.16-5.45-12.16-12.16s5.45-12.16,12.16-12.16,12.16,5.45,12.16,12.16-5.45,12.16-12.16,12.16Z"/>
  <path class="cls-1" d="m177.6,186.21c-.06-.12-.13-.24-.21-.35l-19.01-25.95c-.73-1-2.14-1.22-3.14-.49l-18.92,13.86c-1,.73-1.22,2.14-.49,3.14l19.01,25.95c.08.11.17.21.27.3,2.07,3.39,5.55,5.88,9.78,6.55,7.63,1.2,14.8-4.01,16-11.65.67-4.26-.66-8.36-3.28-11.38Z"/>
  <path class="cls-7" d="m96.33,52.48c13.42,0,26.05,5.23,35.54,14.72,9.49,9.49,14.72,22.11,14.72,35.54s-5.23,26.05-14.72,35.54c-9.49,9.49-22.11,14.72-35.54,14.72s-26.05-5.23-35.54-14.72c-9.49-9.49-14.72-22.11-14.72-35.54s5.23-26.05,14.72-35.54c9.49-9.49,22.11-14.72,35.54-14.72m0-5.01c-30.52,0-55.27,24.74-55.27,55.27s24.74,55.27,55.27,55.27,55.27-24.74,55.27-55.27-24.74-55.27-55.27-55.27h0Z"/>
  <circle class="cls-3" cx="96.24" cy="102.68" r="55.28"/>
  <path class="cls-1" d="m163.5,70.93V19.58c0-3.09-1.72-5.79-4.48-7.04-2.67-1.21-5.71-.75-7.93,1.21l-23.66,20.83c-9.43-4.39-19.94-6.85-31.01-6.85s-21.58,2.46-31.01,6.85l-23.66-20.83c-2.22-1.95-5.26-2.41-7.93-1.21-2.76,1.25-4.48,3.95-4.48,7.04v51.34c-4.97,10.9-7.37,23.22-6.39,36.17,2.73,36.14,31.68,65.09,67.82,67.8,43.18,3.24,79.35-30.98,79.35-73.48,0-10.87-2.37-21.19-6.61-30.49Zm-7.67-51.74c.1-.09.15-.1.25-.05.12.06.27.19.27.51v38.95c-5.89-8.22-13.43-15.17-22.13-20.39l21.61-19.02Zm-119.34.46c0-.32.15-.46.27-.51.1-.05.15-.04.25.05l21.61,19.02c-8.7,5.21-16.24,12.17-22.13,20.39V19.65Zm59.84,148.23c-36.65,0-66.47-29.82-66.47-66.47S59.68,34.94,96.33,34.94s66.47,29.82,66.47,66.47-29.82,66.47-66.47,66.47Z"/>
  <circle class="cls-1" cx="69.05" cy="89.8" r="4.65"/>
  <circle class="cls-1" cx="118.07" cy="89.8" r="4.65"/>
  <path class="cls-1" d="m177.6,186.21c-.06-.12-.13-.24-.21-.35l-19.01-25.95c-.73-1-2.14-1.22-3.14-.49l-18.92,13.86c-1,.73-1.22,2.14-.49,3.14l19.01,25.95c.08.11.17.21.27.3,2.07,3.39,5.55,5.88,9.78,6.55,7.63,1.2,14.8-4.01,16-11.65.67-4.26-.66-8.36-3.28-11.38Z"/>
  <path class="cls-5" d="m168.29,200.96c-4.23-.66-7.71-3.16-9.78-6.55-.1-.09-.19-.19-.27-.3l-17.58-24-4.33,3.18c-1,.73-1.22,2.14-.49,3.14l19.01,25.95c.08.11.17.21.27.3,2.07,3.39,5.55,5.88,9.78,6.55,7.63,1.2,14.8-4.01,16-11.65.07-.43.11-.85.14-1.27-3.06,3.52-7.8,5.43-12.74,4.65Z"/>
  <path class="cls-2" d="m47.53,108.05c0-26.95,21.85-48.8,48.8-48.8s48.8,21.85,48.8,48.8c0,3.45-.36,6.81-1.04,10.06,1.56-4.84,2.4-10.01,2.4-15.37,0-27.71-22.46-50.16-50.16-50.16s-50.16,22.46-50.16,50.16c0,5.36.84,10.52,2.4,15.37-.68-3.25-1.04-6.61-1.04-10.06Z"/>
  <path class="cls-6" d="m157.01,59.18s4.5,7.35,6.49,11.69v-3.01c-.83-1.43-1.83-2.99-3.05-4.61-1.17-1.56-2.34-2.91-3.44-4.07Z"/>
  <path class="cls-4" d="m151.7,138.29c-11.94,17.83-32.26,29.59-55.28,29.59s-43.34-11.76-55.28-29.59v11.7c13.51,15.34,33.28,25.04,55.28,25.04s41.77-9.7,55.28-25.04v-11.7Z"/>
</svg>